:SAMPLES-PER-SECOND 30
:FULLY-SPECIFIED
:DEGREES
24
root  34.8113443 36.5144204 -14.89725338 7.946173191 -2.101262331 3.37927866
lowerback  -8.063420296 -0.2584649324 -0.1825500131
upperback  -3.597002506 0.06859619915 -2.880680084
thorax  0.81072402 0.1685660034 -2.862230062
lowerneck  -14.73279953 0.8473439813 0.1597169936
upperneck  17.34960556 0.5123901963 4.964422703
head  7.77959013 0.8907269835 1.688789964
lclavicle  0 -4.497500157e-015 -2.743230041e-014
lhumerus  -46.01760101 26.56699944 68.25730133
lradius  -0.01346215326 -6.507048965e-006 30.47290039
lwrist  4.824992743e-007 -3.790274832e-007 -26.00569916
lhand  -0 -36.98429871 -10.71220016
lfingers  90 7.125020027 -90
lthumb  94.8635401 -25.54429634 101.1626114
rclavicle  0 -4.497500157e-015 -2.743230041e-014
rhumerus  -57.39920044 -35.96319962 -51.32719803
rradius  -5.16745672e-007 2.214343908e-008 40.79040146
rwrist  -7.499573258e-005 0.03438235447 -154.3350067
rhand  -1.767643932e-031 -2.780750036 -7.426239967
rfingers  -90 -7.125020027 -90
rthumb  -86.50287629 -8.207292591 -66.8246215
rfemur  -11.34812832 16.08315277 13.83803368
rtibia  -1.317505836 0.1064948514 20.9286499
rfoot  -0.1083000377 -19.97357368 -38.45317078
rtoes  4.077712132 19.59658051 -101.9999061
lfemur  -7.664105415 -17.88521957 -19.83496475
ltibia  2.439052582 -0.3269052505 14.70765591
lfoot  0.62727952 -24.8708744 36.33689117
ltoes  -8.718934875 -18.06989996 -116.3090097
25
root  34.81058736 36.51408098 -14.8978331 7.945230961 -2.135471821 3.373365641
lowerback  -8.047610283 -0.264294982 -0.1881720424
upperback  -3.600257874 0.06155980006 -2.886409998
thorax  0.7935799956 0.1652259976 -2.865570068
lowerneck  -14.73180008 0.8353980184 0.1345939934
upperneck  17.35807991 0.4988134503 4.977828979
head  7.780950069 0.8842560053 1.697130084
lclavicle  0 -4.497500157e-015 -2.743230041e-014
lhumerus  -45.98099899 26.5720005 68.27890015
lradius  -0.01386970002 -6.507048965e-006 30.47509956
lwrist  4.824992743e-007 -3.790274832e-007 -25.9503994
lhand  -4.419251534e-031 -36.96220016 -10.70400047
lfingers  90 7.125020027 -90
lthumb  94.85142675 -25.53707256 101.1382397
rclavicle  0 -4.497500157e-015 -2.743230041e-014
rhumerus  -57.23880005 -35.5644989 -51.6576004
rradius  -5.16745672e-007 2.214343908e-008 41.40179825
rwrist  -7.499573258e-005 0.03438235447 -154.9539948
rhand  -3.534725302e-031 -2.586210012 -7.559510231
rfingers  -90 -7.125020027 -90
rthumb  -86.52009333 -8.094882938 -66.64269016
rfemur  -11.35507488 16.0907917 13.84100437
rtibia  -1.313378692 0.1078578234 20.93220329
rfoot  -0.09823846817 -19.97185516 -38.41560364
rtoes  4.075155514 19.59709229 -101.9922835
lfemur  -7.675305843 -17.93747711 -19.82167625
ltibia  2.422342539 -0.3472859859 14.72915554
lfoot  0.641036272 -24.83211327 36.42300797
ltoes  -8.738665583 -18.06061251 -116.3726366
26
root  34.80905247 36.5128795 -14.90001378 7.932997227 -2.16095686 3.385565519
lowerback  -8.058979988 -0.2755229473 -0.1755620539
upperback  -3.601111889 0.04697290063 -2.897360086
thorax  0.7959409952 0.158149004 -2.885349989
lowerneck  -14.75520039 0.8178809881 0.1342200041
upperneck  17.38030052 0.4703139663 4.997940063
head  7.791860104 0.8738039732 1.702450037
lclavicle  0 -4.497500157e-015 -2.743230041e-014
lhumerus  -45.95589828 26.51539993 68.3219986
lradius  -0.01427789871 -6.507048965e-006 30.5252018
lwrist  4.824992743e-007 -3.790274832e-007 -25.82189941
lhand  -0 -36.95000076 -10.71609974
lfingers  90 7.125020027 -90
lthumb  94.84828971 -25.54945248 101.1262778
rclavicle  0 -4.497500157e-015 -2.743230041e-014
rhumerus  -57.17160034 -35.30469894 -51.87739944
rradius  -5.16745672e-007 2.214343908e-008 42.07210159
rwrist  -7.499573258e-005 0.03438235447 -155.3730011
rhand  -1.767346803e-031 -2.574810028 -7.73443985
rfingers  -90 -7.125020027 -90
rthumb  -86.58805403 -7.934849772 -66.64129338
rfemur  -11.35924816 16.10488701 13.83338261
rtibia  -1.31935513 0.1106099635 20.96170425
rfoot  -0.1025251895 -19.98206139 -38.39070892
rtoes  4.052459762 19.60162071 -101.924624
lfemur  -7.647476673 -17.92607689 -19.84251785
ltibia  2.44055295 -0.3533067107 14.69705009
lfoot  0.6443938017 -24.80459213 36.4466095
ltoes  -8.717515768 -18.07056693 -116.3044346
27
root  34.81081565 36.51144674 -14.90325928 7.930998802 -2.207430124 3.390699863
lowerback  -8.07256031 -0.2873500288 -0.1904525906
upperback  -3.600867033 0.03336999938 -2.905100107
thorax  0.8044890165 0.1517640054 -2.886189938
lowerneck  -14.7645998 0.8334540129 0.2270859927
upperneck  17.40660095 0.4806569815 4.945199966
head  7.802619934 0.8807119727 1.671319962
lclavicle  0 -4.497500157e-015 -2.743230041e-014
lhumerus  -45.92639923 26.47590065 68.34539795
lradius  -0.01468676515 -6.507048965e-006 30.54679871
lwrist  4.824992743e-007 -3.790274832e-007 -25.68280029
lhand  -4.418578408e-031 -36.95059967 -10.63599968
lfingers  90 7.125020027 -90
lthumb  94.83143233 -25.4707081 101.1195582
rclavicle  0 -4.497500157e-015 -2.743230041e-014
rhumerus  -57.08129883 -34.91419983 -52.17529678
rradius  -5.16745672e-007 2.214343908e-008 42.71480179
rwrist  -7.499573258e-005 0.03438235447 -156.1679993
rhand  -1.767255011e-031 -2.507760048 -7.639910221
rfingers  -90 -7.125020027 -90
rthumb  -86.5378806 -8.025251906 -66.57076452
rfemur  -11.37624741 16.15393257 13.81965542
rtibia  -1.323315024 0.1032674909 20.97771263
rfoot  -0.1102647483 -19.99584007 -38.39605713
rtoes  4.050399341 19.60203051 -101.9184823
lfemur  -7.662400723 -17.96305466 -19.85045242
ltibia  2.425585985 -0.3774972856 14.7267046
lfoot  0.6605508924 -24.77358627 36.52161407
ltoes  -8.712032533 -18.07314272 -116.2867587
28
root  34.81320359 36.5102813 -14.905066 7.938038826 -2.242166758 3.403691053
lowerback  -8.068340302 -0.2990969718 -0.1806495637
upperback  -3.601599932 0.01716019958 -2.911619902
thorax  0.8006240129 0.143554002 -2.899879932
lowerneck  -14.77499962 0.8082820177 0.2232899964
upperneck  17.42749977 0.4471519887 4.940460205
head  7.812310219 0.8647630215 1.667209983
lclavicle  0 -4.497500157e-015 -2.743230041e-014
lhumerus  -45.91889954 26.55599976 68.29820251
lradius  -0.01509631239 -6.507048965e-006 30.54290009
lwrist  4.824992743e-007 -3.790274832e-007 -25.71589851
lhand  -4.420691827e-031 -36.98699951 -10.59319973
lfingers  90 7.125020027 -90
lthumb  94.83928472 -25.42742386 101.1545138
rclavicle  0 -4.497500157e-015 -2.743230041e-014
rhumerus  -56.93330002 -34.2845993 -52.6841011
rradius  -5.16745672e-007 2.214343908e-008 43.53070068
rwrist  -7.499573258e-005 0.03438235447 -157.1600037
rhand  -1.767014456e-031 -2.322849989 -7.412879944
rfingers  -90 -7.125020027 -90
rthumb  -86.41200974 -8.243015807 -66.37767088
rfemur  -11.39834881 16.14172935 13.79807949
rtibia  -1.332903981 0.05200303346 20.98848915
rfoot  -0.126775533 -20.08911514 -38.38787842
rtoes  4.076469224 19.59682935 -101.9962003
lfemur  -7.708201408 -17.90535736 -19.85580254
ltibia  2.406626463 -0.3851195574 14.77654648
lfoot  0.6575428843 -24.79122734 36.4689064
ltoes  -8.685216531 -18.08571043 -116.2003489
